<svg width="108" height="108" viewBox="0 0 108 108" fill="none" xmlns="http://www.w3.org/2000/svg">
<g clip-path="url(#clip0_1_10)">
<path fill-rule="evenodd" clip-rule="evenodd" d="M81.2667 31.1678L89.4889 51.6883C89.8372 52.5557 90.0104 53.4833 89.9994 54.4179C89.989 55.3524 89.7937 56.2757 89.4253 57.1349L80.7245 77.4641C80.3573 78.3223 79.8245 79.0997 79.1567 79.752C78.4891 80.4043 77.6994 80.9187 76.8329 81.2658L56.3054 89.4895C55.4387 89.8372 54.5121 90.0097 53.5784 89.9994C52.6447 89.9883 51.7223 89.7937 50.8639 89.4259L30.5344 80.7237C28.8014 79.9815 27.434 78.5818 26.7324 76.8321L18.5103 56.305C18.1629 55.4386 17.9896 54.5122 18.0005 53.5788C18.0113 52.6454 18.2061 51.7232 18.5735 50.8651L27.2746 30.5342C28.0168 28.8014 29.4165 27.4339 31.1663 26.7324L51.6937 18.5103C52.5604 18.1629 53.4872 17.9896 54.4208 18.0005C55.3546 18.0113 56.277 18.206 57.1354 18.5735L77.4648 27.2746C78.3232 27.6419 79.101 28.1748 79.7533 28.8427C80.4056 29.5109 80.9199 30.3009 81.2667 31.1678ZM69.4402 68.0831C71.0218 67.2693 72.747 66.3818 74.6394 65.3451C77.7577 63.6455 80.0261 60.7068 80.6015 58.0193C81.2334 55.3051 80.1657 52.8438 78.0237 51.4934C73.1331 48.3608 71.1244 44.4571 68.0861 38.5524C67.2726 36.9715 66.3854 35.2474 65.3493 33.3561C63.658 30.2362 60.7194 27.9645 58.0318 27.3941C55.3177 26.7605 52.8562 27.8298 51.5058 29.9718C48.3738 34.8613 44.4712 36.8691 38.5686 39.9058C36.9867 40.7196 35.2612 41.6074 33.3683 42.6443C30.2483 44.3456 27.9782 47.2842 27.4061 49.9718C26.7741 52.6842 27.8418 55.1473 29.9838 56.496C34.8745 59.6287 36.8831 63.5323 39.9215 69.437C40.7349 71.0178 41.6221 72.7421 42.6581 74.6333C44.3495 77.7532 47.2882 80.025 49.9757 80.5954C52.6899 81.229 55.1513 80.1613 56.5017 78.0193C59.6339 73.1282 63.537 71.1202 69.4402 68.0831Z" fill="url(#paint0_linear_1_10)"/>
<path fill-rule="evenodd" clip-rule="evenodd" d="M81.2667 31.1678L89.4889 51.6883C89.8372 52.5557 90.0104 53.4833 89.9994 54.4179C89.989 55.3524 89.7937 56.2757 89.4253 57.1349L80.7245 77.4641C80.3573 78.3223 79.8245 79.0997 79.1567 79.752C78.4891 80.4043 77.6994 80.9187 76.8329 81.2658L56.3054 89.4895C55.4387 89.8372 54.5121 90.0097 53.5784 89.9994C52.6447 89.9883 51.7223 89.7937 50.8639 89.4259L30.5344 80.7237C28.8014 79.9815 27.434 78.5818 26.7324 76.8321L18.5103 56.305C18.1629 55.4386 17.9896 54.5122 18.0005 53.5788C18.0113 52.6454 18.2061 51.7232 18.5735 50.8651L27.2746 30.5342C28.0168 28.8014 29.4165 27.4339 31.1663 26.7324L51.6937 18.5103C52.5604 18.1629 53.4872 17.9896 54.4208 18.0005C55.3546 18.0113 56.277 18.206 57.1354 18.5735L77.4648 27.2746C78.3232 27.6419 79.101 28.1748 79.7533 28.8427C80.4056 29.5109 80.9199 30.3009 81.2667 31.1678ZM69.4402 68.0831C71.0218 67.2693 72.747 66.3818 74.6394 65.3451C77.7577 63.6455 80.0261 60.7068 80.6015 58.0193C81.2334 55.3051 80.1657 52.8438 78.0237 51.4934C73.1331 48.3608 71.1244 44.4571 68.0861 38.5524C67.2726 36.9715 66.3854 35.2474 65.3493 33.3561C63.658 30.2362 60.7194 27.9645 58.0318 27.3941C55.3177 26.7605 52.8562 27.8298 51.5058 29.9718C48.3738 34.8613 44.4712 36.8691 38.5686 39.9058C36.9867 40.7196 35.2612 41.6074 33.3683 42.6443C30.2483 44.3456 27.9782 47.2842 27.4061 49.9718C26.7741 52.6842 27.8418 55.1473 29.9838 56.496C34.8745 59.6287 36.8831 63.5323 39.9215 69.437C40.7349 71.0178 41.6221 72.7421 42.6581 74.6333C44.3495 77.7532 47.2882 80.025 49.9757 80.5954C52.6899 81.229 55.1513 80.1613 56.5017 78.0193C59.6339 73.1282 63.537 71.1202 69.4402 68.0831Z" fill="url(#paint1_linear_1_10)" fill-opacity="0.5"/>
<path fill-rule="evenodd" clip-rule="evenodd" d="M81.2667 31.1678L89.4889 51.6883C89.8372 52.5557 90.0104 53.4833 89.9994 54.4179C89.989 55.3524 89.7937 56.2757 89.4253 57.1349L80.7245 77.4641C80.3573 78.3223 79.8245 79.0997 79.1567 79.752C78.4891 80.4043 77.6994 80.9187 76.8329 81.2658L56.3054 89.4895C55.4387 89.8372 54.5121 90.0097 53.5784 89.9994C52.6447 89.9883 51.7223 89.7937 50.8639 89.4259L30.5344 80.7237C28.8014 79.9815 27.434 78.5818 26.7324 76.8321L18.5103 56.305C18.1629 55.4386 17.9896 54.5122 18.0005 53.5788C18.0113 52.6454 18.2061 51.7232 18.5735 50.8651L27.2746 30.5342C28.0168 28.8014 29.4165 27.4339 31.1663 26.7324L51.6937 18.5103C52.5604 18.1629 53.4872 17.9896 54.4208 18.0005C55.3546 18.0113 56.277 18.206 57.1354 18.5735L77.4648 27.2746C78.3232 27.6419 79.101 28.1748 79.7533 28.8427C80.4056 29.5109 80.9199 30.3009 81.2667 31.1678ZM69.4402 68.0831C71.0218 67.2693 72.747 66.3818 74.6394 65.3451C77.7577 63.6455 80.0261 60.7068 80.6015 58.0193C81.2334 55.3051 80.1657 52.8438 78.0237 51.4934C73.1331 48.3608 71.1244 44.4571 68.0861 38.5524C67.2726 36.9715 66.3854 35.2474 65.3493 33.3561C63.658 30.2362 60.7194 27.9645 58.0318 27.3941C55.3177 26.7605 52.8562 27.8298 51.5058 29.9718C48.3738 34.8613 44.4712 36.8691 38.5686 39.9058C36.9867 40.7196 35.2612 41.6074 33.3683 42.6443C30.2483 44.3456 27.9782 47.2842 27.4061 49.9718C26.7741 52.6842 27.8418 55.1473 29.9838 56.496C34.8745 59.6287 36.8831 63.5323 39.9215 69.437C40.7349 71.0178 41.6221 72.7421 42.6581 74.6333C44.3495 77.7532 47.2882 80.025 49.9757 80.5954C52.6899 81.229 55.1513 80.1613 56.5017 78.0193C59.6339 73.1282 63.537 71.1202 69.4402 68.0831Z" fill="url(#paint2_linear_1_10)" fill-opacity="0.15"/>
<path fill-rule="evenodd" clip-rule="evenodd" d="M81.2667 31.1678L89.4889 51.6883C89.8372 52.5557 90.0104 53.4833 89.9994 54.4179C89.989 55.3524 89.7937 56.2757 89.4253 57.1349L80.7245 77.4641C80.3573 78.3223 79.8245 79.0997 79.1567 79.752C78.4891 80.4043 77.6994 80.9187 76.8329 81.2658L56.3054 89.4895C55.4387 89.8372 54.5121 90.0097 53.5784 89.9994C52.6447 89.9883 51.7223 89.7937 50.8639 89.4259L30.5344 80.7237C28.8014 79.9815 27.434 78.5818 26.7324 76.8321L18.5103 56.305C18.1629 55.4386 17.9896 54.5122 18.0005 53.5788C18.0113 52.6454 18.2061 51.7232 18.5735 50.8651L27.2746 30.5342C28.0168 28.8014 29.4165 27.4339 31.1663 26.7324L51.6937 18.5103C52.5604 18.1629 53.4872 17.9896 54.4208 18.0005C55.3546 18.0113 56.277 18.206 57.1354 18.5735L77.4648 27.2746C78.3232 27.6419 79.101 28.1748 79.7533 28.8427C80.4056 29.5109 80.9199 30.3009 81.2667 31.1678ZM69.4402 68.0831C71.0218 67.2693 72.747 66.3818 74.6394 65.3451C77.7577 63.6455 80.0261 60.7068 80.6015 58.0193C81.2334 55.3051 80.1657 52.8438 78.0237 51.4934C73.1331 48.3608 71.1244 44.4571 68.0861 38.5524C67.2726 36.9715 66.3854 35.2474 65.3493 33.3561C63.658 30.2362 60.7194 27.9645 58.0318 27.3941C55.3177 26.7605 52.8562 27.8298 51.5058 29.9718C48.3738 34.8613 44.4712 36.8691 38.5686 39.9058C36.9867 40.7196 35.2612 41.6074 33.3683 42.6443C30.2483 44.3456 27.9782 47.2842 27.4061 49.9718C26.7741 52.6842 27.8418 55.1473 29.9838 56.496C34.8745 59.6287 36.8831 63.5323 39.9215 69.437C40.7349 71.0178 41.6221 72.7421 42.6581 74.6333C44.3495 77.7532 47.2882 80.025 49.9757 80.5954C52.6899 81.229 55.1513 80.1613 56.5017 78.0193C59.6339 73.1282 63.537 71.1202 69.4402 68.0831Z" fill="url(#paint3_radial_1_10)"/>
<path fill-rule="evenodd" clip-rule="evenodd" d="M81.2667 31.1678L89.4889 51.6883C89.8372 52.5557 90.0104 53.4833 89.9994 54.4179C89.989 55.3524 89.7937 56.2757 89.4253 57.1349L80.7245 77.4641C80.3573 78.3223 79.8245 79.0997 79.1567 79.752C78.4891 80.4043 77.6994 80.9187 76.8329 81.2658L56.3054 89.4895C55.4387 89.8372 54.5121 90.0097 53.5784 89.9994C52.6447 89.9883 51.7223 89.7937 50.8639 89.4259L30.5344 80.7237C28.8014 79.9815 27.434 78.5818 26.7324 76.8321L18.5103 56.305C18.1629 55.4386 17.9896 54.5122 18.0005 53.5788C18.0113 52.6454 18.2061 51.7232 18.5735 50.8651L27.2746 30.5342C28.0168 28.8014 29.4165 27.4339 31.1663 26.7324L51.6937 18.5103C52.5604 18.1629 53.4872 17.9896 54.4208 18.0005C55.3546 18.0113 56.277 18.206 57.1354 18.5735L77.4648 27.2746C78.3232 27.6419 79.101 28.1748 79.7533 28.8427C80.4056 29.5109 80.9199 30.3009 81.2667 31.1678ZM69.4402 68.0831C71.0218 67.2693 72.747 66.3818 74.6394 65.3451C77.7577 63.6455 80.0261 60.7068 80.6015 58.0193C81.2334 55.3051 80.1657 52.8438 78.0237 51.4934C73.1331 48.3608 71.1244 44.4571 68.0861 38.5524C67.2726 36.9715 66.3854 35.2474 65.3493 33.3561C63.658 30.2362 60.7194 27.9645 58.0318 27.3941C55.3177 26.7605 52.8562 27.8298 51.5058 29.9718C48.3738 34.8613 44.4712 36.8691 38.5686 39.9058C36.9867 40.7196 35.2612 41.6074 33.3683 42.6443C30.2483 44.3456 27.9782 47.2842 27.4061 49.9718C26.7741 52.6842 27.8418 55.1473 29.9838 56.496C34.8745 59.6287 36.8831 63.5323 39.9215 69.437C40.7349 71.0178 41.6221 72.7421 42.6581 74.6333C44.3495 77.7532 47.2882 80.025 49.9757 80.5954C52.6899 81.229 55.1513 80.1613 56.5017 78.0193C59.6339 73.1282 63.537 71.1202 69.4402 68.0831Z" fill="url(#paint4_radial_1_10)"/>
</g>
<defs>
<linearGradient id="paint0_linear_1_10" x1="59.5626" y1="18" x2="43.5263" y2="115.199" gradientUnits="userSpaceOnUse">
<stop stop-color="#0062F2"/>
<stop offset="0.249582" stop-color="#C6DDFF"/>
<stop offset="0.59375" stop-color="#C6DDFF"/>
<stop offset="1" stop-color="#0062F2"/>
</linearGradient>
<linearGradient id="paint1_linear_1_10" x1="-16.6901" y1="57.2721" x2="117.488" y2="89.9981" gradientUnits="userSpaceOnUse">
<stop offset="0.279297" stop-color="#0062F2"/>
<stop offset="0.474855" stop-color="#AAC8F3"/>
<stop offset="1" stop-color="#0062F2"/>
</linearGradient>
<linearGradient id="paint2_linear_1_10" x1="67.0897" y1="18" x2="61.5261" y2="49.0904" gradientUnits="userSpaceOnUse">
<stop/>
<stop offset="1" stop-opacity="0"/>
</linearGradient>
<radialGradient id="paint3_radial_1_10" cx="0" cy="0" r="1" gradientUnits="userSpaceOnUse" gradientTransform="translate(53.9991 57.2721) rotate(117.387) scale(30.592 30.5922)">
<stop stop-color="#C5D9F6"/>
<stop offset="1" stop-color="#C4DAF3" stop-opacity="0"/>
</radialGradient>
<radialGradient id="paint4_radial_1_10" cx="0" cy="0" r="1" gradientUnits="userSpaceOnUse" gradientTransform="translate(74.944 56.6176) rotate(126.027) scale(35.6104 35.6107)">
<stop stop-color="#DFFF00"/>
<stop offset="1" stop-color="#F1FBCE" stop-opacity="0"/>
</radialGradient>
<clipPath id="clip0_1_10">
<rect width="72" height="72" fill="white" transform="translate(18 18)"/>
</clipPath>
</defs>
</svg>
